# xmcd
#
# Track frame offsets: 
#        150
#        24754
#        73524
#        116585
#        156382
#        189820
#        211415
#
# Disc length: 3296 seconds
#
# Revision: 1
# Processed by: cddbd v1.5.2PL0 Copyright (c) Steve Scherf et al.
# Submitted via: ExactAudioCopy v0.99pb5
#
DISCID=540cde07
DTITLE=Leszek Winder - Live In Lesniczowka
DYEAR=1900
DGENRE=Blues
TTITLE0=Jam
TTITLE1=Jam
TTITLE2=Jam
TTITLE3=Jam
TTITLE4=Jam
TTITLE5=Jam
TTITLE6=Jam
EXTD=
EXTT0=
EXTT1=
EXTT2=
EXTT3=
EXTT4=
EXTT5=
EXTT6=
PLAYORDER=
